<svg xmlns="http://www.w3.org/2000/svg" viewBox="0 0 648.52 168.3"><defs><style>.cls-1{font-size:85.41px;font-family:HelveticaNeue-Bold, Helvetica Neue;font-weight:700;}.cls-1,.cls-2{fill:#333;}.cls-2{font-size:56.31px;font-family:HelveticaNeue, Helvetica Neue;}.cls-3{fill:#29abe2;}.cls-4{fill:#4d4d4d;stroke:#333;stroke-miterlimit:10;stroke-width:5px;}</style></defs><title>Logo</title><g id="Layer_2" data-name="Layer 2"><g id="Layer_1-2" data-name="Layer 1"><text class="cls-1" transform="translate(213.71 81.96)">VIABLE</text><text class="cls-2" transform="translate(213.71 141.21)">TECHNOLOGIES</text><polygon class="cls-3" points="98.71 76.22 165.05 25 165.05 37.52 106.82 82.47 165.05 127.43 165.05 164.95 82.52 101.22 0 164.93 0 152.42 74.42 94.97 98.71 76.22"/><polygon class="cls-3" points="165.05 0 165.05 12.51 90.61 69.96 66.32 88.71 58.23 82.47 0 37.53 0 0.02 82.52 63.72 165.05 0"/><polygon class="cls-3" points="90.61 69.96 66.32 88.71 58.23 82.47 0 37.53 0 0.02 82.52 63.72 90.61 69.96"/><polygon class="cls-3" points="165.05 127.43 165.05 164.95 82.52 101.22 74.42 94.97 98.71 76.22 106.82 82.47 165.05 127.43"/><path class="cls-3" d="M82.52,63.72,58.23,82.47l8.09,6.24L90.61,70,165,12.51V0ZM74.42,95,0,152.42v12.51l82.52-63.71,24.29-18.75,58.23-45V25L98.71,76.22Z"/><line class="cls-4" x1="189.38" x2="189.38" y2="164.93"/></g></g></svg>